<svg width="40" height="40" viewBox="0 0 40 40" fill="none" xmlns="http://www.w3.org/2000/svg">
<g clip-path="url(#clip0_35_36)">
<path d="M30.52 13.7417C32.5567 12.4033 33.905 10.0967 33.905 7.48333C33.905 3.35667 30.5467 0 26.42 0H13.58C9.45333 0 6.095 3.35667 6.095 7.48333C6.095 10.0967 7.44333 12.4033 9.48 13.7417C7.44333 15.08 6.095 17.3867 6.095 20C6.095 22.6133 7.44333 24.92 9.48 26.2583C7.44333 27.595 6.095 29.9017 6.095 32.5167C6.095 36.6433 9.47 40 13.62 40C17.8133 40 21.2267 36.6067 21.2267 32.435V25.5333C22.5567 26.745 24.3233 27.4833 26.2583 27.4833H26.42C30.5467 27.4833 33.905 24.1267 33.905 20C33.905 17.3867 32.5567 15.08 30.52 13.7417ZM21.225 2.45167H26.42C29.195 2.45167 31.4533 4.70833 31.4533 7.48333C31.4533 10.2583 29.195 12.5167 26.42 12.5167H21.225V2.45167ZM8.54667 7.48333C8.54667 4.70833 10.805 2.45167 13.58 2.45167H18.775V12.5167H13.58C10.805 12.5167 8.54667 10.2583 8.54667 7.48333ZM8.54667 20C8.54667 17.225 10.805 14.9683 13.58 14.9683H18.775V25.0333H13.5483C10.7883 25.015 8.54667 22.7633 8.54667 20ZM18.775 32.435C18.775 35.255 16.4617 37.5483 13.62 37.5483C10.8233 37.5483 8.54667 35.2917 8.54667 32.5167C8.54667 29.7417 10.805 27.4833 13.58 27.4833H18.775V32.435ZM26.42 25.0333H26.2583C23.4833 25.0333 21.2267 22.775 21.2267 20C21.2267 17.225 23.4833 14.9683 26.2583 14.9683H26.42C29.195 14.9683 31.4533 17.225 31.4533 20C31.4533 22.775 29.195 25.0333 26.42 25.0333Z" fill="black"/>
</g>
<defs>
<clipPath id="clip0_35_36">
<rect width="40" height="40" fill="white"/>
</clipPath>
</defs>
</svg>
