<svg width="32" height="32" viewBox="0 0 32 32" fill="none" xmlns="http://www.w3.org/2000/svg">
<g clip-path="url(#clip0_27_28)">
<path d="M23.3335 2.55603C21.8321 2.57938 20.3634 2.9985 19.0758 3.77106C17.7883 4.54362 16.7273 5.64226 16.0002 6.95603C15.273 5.64226 14.2121 4.54362 12.9245 3.77106C11.6369 2.9985 10.1682 2.57938 8.66683 2.55603C6.27342 2.66002 4.01844 3.70704 2.39454 5.46834C0.770647 7.22965 -0.0901659 9.56206 0.000168182 11.956C0.000168182 18.0187 6.3815 24.64 11.7335 29.1294C12.9285 30.1335 14.4393 30.6841 16.0002 30.6841C17.561 30.6841 19.0719 30.1335 20.2668 29.1294C25.6188 24.64 32.0002 18.0187 32.0002 11.956C32.0905 9.56206 31.2297 7.22965 29.6058 5.46834C27.9819 3.70704 25.7269 2.66002 23.3335 2.55603ZM18.5535 27.0894C17.8388 27.6912 16.9345 28.0212 16.0002 28.0212C15.0658 28.0212 14.1615 27.6912 13.4468 27.0894C6.59617 21.3414 2.66683 15.8267 2.66683 11.956C2.57569 10.269 3.15532 8.61434 4.27932 7.35296C5.40331 6.09159 6.98048 5.32583 8.66683 5.2227C10.3532 5.32583 11.9304 6.09159 13.0543 7.35296C14.1783 8.61434 14.758 10.269 14.6668 11.956C14.6668 12.3097 14.8073 12.6488 15.0574 12.8988C15.3074 13.1489 15.6465 13.2894 16.0002 13.2894C16.3538 13.2894 16.6929 13.1489 16.943 12.8988C17.193 12.6488 17.3335 12.3097 17.3335 11.956C17.2424 10.269 17.822 8.61434 18.946 7.35296C20.07 6.09159 21.6471 5.32583 23.3335 5.2227C25.0199 5.32583 26.597 6.09159 27.721 7.35296C28.845 8.61434 29.4246 10.269 29.3335 11.956C29.3335 15.8267 25.4042 21.3414 18.5535 27.084V27.0894Z" fill="white"/>
</g>
<defs>
<clipPath id="clip0_27_28">
<rect width="32" height="32" fill="white"/>
</clipPath>
</defs>
</svg>
