<svg width="33" height="33" viewBox="0 0 33 33" fill="none" xmlns="http://www.w3.org/2000/svg">
<path d="M31.652 29.7667L23.6933 21.808C25.8622 19.1555 26.9285 15.7708 26.6718 12.3541C26.4151 8.93739 24.855 5.75005 22.3141 3.45137C19.7733 1.15269 16.4461 -0.0814656 13.0209 0.00417679C9.5956 0.0898192 6.33428 1.48871 3.9115 3.9115C1.48871 6.33428 0.0898192 9.5956 0.00417679 13.0209C-0.0814656 16.4461 1.15269 19.7733 3.45137 22.3141C5.75005 24.855 8.93739 26.4151 12.3541 26.6718C15.7708 26.9285 19.1555 25.8622 21.808 23.6933L29.7667 31.652C30.0182 31.8949 30.355 32.0293 30.7045 32.0262C31.0541 32.0232 31.3886 31.883 31.6358 31.6358C31.883 31.3886 32.0232 31.0541 32.0262 30.7045C32.0293 30.355 31.8949 30.0181 31.652 29.7667ZM13.376 24.0427C11.2663 24.0427 9.20405 23.4171 7.44993 22.245C5.6958 21.073 4.32863 19.407 3.5213 17.458C2.71396 15.5089 2.50273 13.3642 2.9143 11.295C3.32588 9.22592 4.34178 7.3253 5.83354 5.83354C7.3253 4.34178 9.22592 3.32588 11.295 2.9143C13.3642 2.50273 15.5089 2.71396 17.458 3.5213C19.407 4.32863 21.073 5.6958 22.245 7.44993C23.4171 9.20405 24.0427 11.2663 24.0427 13.376C24.0395 16.204 22.9147 18.9153 20.915 20.915C18.9153 22.9147 16.204 24.0395 13.376 24.0427Z" fill="black"/>
</svg>
