<svg width="40" height="40" viewBox="0 0 40 40" fill="none" xmlns="http://www.w3.org/2000/svg">
<path d="M20 0C8.955 0 0 8.955 0 20C0 31.0467 8.955 40 20 40C31.0467 40 40 31.0467 40 20C40 8.955 31.0467 0 20 0ZM29.1717 28.8467C28.8117 29.4367 28.045 29.62 27.4583 29.2617C22.7617 26.3917 16.85 25.7433 9.88833 27.3333C9.21667 27.4867 8.54833 27.0667 8.395 26.3967C8.24167 25.7267 8.66 25.0567 9.33333 24.905C16.9517 23.1633 23.4867 23.9133 28.7583 27.135C29.3467 27.4917 29.5317 28.26 29.1717 28.8467ZM31.62 23.4017C31.1683 24.135 30.2083 24.365 29.475 23.915C24.1 20.6117 15.905 19.6533 9.545 21.585C8.72167 21.8333 7.85 21.3683 7.6 20.545C7.35167 19.72 7.81667 18.8517 8.64 18.6C15.9033 16.395 24.9333 17.4633 31.1067 21.2567C31.84 21.7083 32.07 22.6683 31.62 23.4017ZM31.83 17.73C25.3833 13.9017 14.75 13.55 8.595 15.4183C7.60667 15.7183 6.56167 15.16 6.26167 14.1717C5.96167 13.1833 6.52 12.1383 7.50833 11.8383C14.5733 9.69333 26.3167 10.1083 33.7383 14.5133C34.6267 15.0417 34.9183 16.1883 34.3917 17.0767C33.8667 17.965 32.7167 18.2583 31.83 17.73Z" fill="black"/>
</svg>
